<?xml version="1.0" encoding="UTF-8" standalone="no"?>
<!-- Created with Inkscape (http://www.inkscape.org/) -->

<svg
   width="366.23145mm"
   height="250.86447mm"
   viewBox="0 0 366.23145 250.86447"
   version="1.1"
   id="svg1"
   xml:space="preserve"
   inkscape:version="1.3.2 (091e20ef0f, 2023-11-25)"
   sodipodi:docname="ClampRack.svg"
   xmlns:inkscape="http://www.inkscape.org/namespaces/inkscape"
   xmlns:sodipodi="http://sodipodi.sourceforge.net/DTD/sodipodi-0.dtd"
   xmlns="http://www.w3.org/2000/svg"
   xmlns:svg="http://www.w3.org/2000/svg"><sodipodi:namedview
     id="namedview1"
     pagecolor="#505050"
     bordercolor="#eeeeee"
     borderopacity="1"
     inkscape:showpageshadow="0"
     inkscape:pageopacity="0"
     inkscape:pagecheckerboard="0"
     inkscape:deskcolor="#d1d1d1"
     inkscape:document-units="mm"
     inkscape:zoom="0.35856832"
     inkscape:cx="754.38901"
     inkscape:cy="-20.916516"
     inkscape:window-width="1920"
     inkscape:window-height="1011"
     inkscape:window-x="0"
     inkscape:window-y="0"
     inkscape:window-maximized="1"
     inkscape:current-layer="layer1" /><defs
     id="defs1"><marker
       id="DistanceX"
       orient="auto"
       refX="0"
       refY="0"
       style="overflow:visible"><path
         d="M 3,-3 -3,3 M 0,-5 V 5"
         style="stroke:#000000;stroke-width:0.5"
         id="path1" /></marker><pattern
       id="Hatch"
       patternUnits="userSpaceOnUse"
       width="8"
       height="8"
       x="0"
       y="0"><path
         d="M8 4 l-4,4"
         stroke="#000000"
         stroke-width="0.25"
         linecap="square"
         id="path2" /><path
         d="M6 2 l-4,4"
         stroke="#000000"
         stroke-width="0.25"
         linecap="square"
         id="path3" /><path
         d="M4 0 l-4,4"
         stroke="#000000"
         stroke-width="0.25"
         linecap="square"
         id="path4" /></pattern><symbol
       id="*MODEL_SPACE" /><symbol
       id="*PAPER_SPACE" /><marker
       id="DistanceX-3"
       orient="auto"
       refX="0"
       refY="0"
       style="overflow:visible"><path
         d="M 3,-3 -3,3 M 0,-5 V 5"
         style="stroke:#000000;stroke-width:0.5"
         id="path1-6" /></marker><pattern
       id="Hatch-7"
       patternUnits="userSpaceOnUse"
       width="8"
       height="8"
       x="0"
       y="0"><path
         d="M8 4 l-4,4"
         stroke="#000000"
         stroke-width="0.25"
         linecap="square"
         id="path2-5" /><path
         d="M6 2 l-4,4"
         stroke="#000000"
         stroke-width="0.25"
         linecap="square"
         id="path3-3" /><path
         d="M4 0 l-4,4"
         stroke="#000000"
         stroke-width="0.25"
         linecap="square"
         id="path4-5" /></pattern><symbol
       id="*MODEL_SPACE-6" /><symbol
       id="*PAPER_SPACE-2" /><marker
       id="DistanceX-4"
       orient="auto"
       refX="0"
       refY="0"
       style="overflow:visible"><path
         d="M 3,-3 -3,3 M 0,-5 V 5"
         style="stroke:#000000;stroke-width:0.5"
         id="path1-7" /></marker><pattern
       id="Hatch-6"
       patternUnits="userSpaceOnUse"
       width="8"
       height="8"
       x="0"
       y="0"><path
         d="M8 4 l-4,4"
         stroke="#000000"
         stroke-width="0.25"
         linecap="square"
         id="path2-56" /><path
         d="M6 2 l-4,4"
         stroke="#000000"
         stroke-width="0.25"
         linecap="square"
         id="path3-9" /><path
         d="M4 0 l-4,4"
         stroke="#000000"
         stroke-width="0.25"
         linecap="square"
         id="path4-3" /></pattern><symbol
       id="*MODEL_SPACE-7" /><symbol
       id="*PAPER_SPACE-4" /></defs><g
     inkscape:label="Layer 1"
     inkscape:groupmode="layer"
     id="layer1"
     transform="translate(270.65063,-23.067381)"><g
       id="g4"><path
         style="fill:none;stroke:#000000;stroke-width:0.264583"
         d="m 28.747336,148.09959 h -5.299869 v 25.19998 h 5.299869 v 24.79992 h -5.299869 v 50.09912 L 8.447444,233.19965 v 34.69983 h 17.299781 v 5.29961 h 17.600083 v -5.29961 h 17.200037 v 5.29961 h 17.60008 v -5.29961 h 17.3011 V 73.199491 H 28.747336 v 24.899938 h -5.299869 v 25.200241 h 5.299869 z"
         id="path50"
         sodipodi:nodetypes="ccccccccccccccccccccccccc" /><path
         style="fill:none;stroke:#000000;stroke-width:0.264583"
         d="m 23.447467,148.29949 h 5.299869 V 123.09951 H 23.447467 V 98.29959 h 5.299869 V 48.20047 L 43.747359,63.199429 V 28.499599 H 26.447578 v -5.29961 H 8.847495 v 5.29961 H -8.352541 v -5.29961 h -17.60008 v 5.29961 h -17.3011 V 223.19959 h 66.701188 v -24.89994 h 5.299869 v -25.20024 h -5.299869 z"
         id="path50-9"
         sodipodi:nodetypes="ccccccccccccccccccccccccc" /><g
         id="g3"
         transform="matrix(-1,0,0,1,-537.49628,-50.332757)"><path
           d="M -266.97794,309.13261 V 88.532458 c -5e-5,-8.284266 -6.71578,-14.999994 -15.00002,-15.000011 l -16.40016,-1.7e-5 -0.99986,1.000125 v 4.300008 h -17.40006 v -4.300008 l -0.99986,-1.000125 h -15.40008 l -1.00012,1.000125 v 4.300008 h -17.39979 v -4.300008 l -1.00013,-1.000125 h -15.40007 l -0.99986,1.000125 V 323.13188 l 0.99986,1.00012 h 15.40007 l 1.00013,-1.00012 v -4.29948 h 17.39979 v 4.29948 l 1.00012,1.00012 h 15.40008 l 0.99986,-1.00012 v -4.29948 h 17.40006 v 4.29948 l 0.99986,1.00012 16.40016,2.2e-4 c 8.28424,2.3e-4 14.99996,-6.71549 15.00002,-14.99961 z"
           style="fill:none;stroke:#000000;stroke-width:0.264583"
           id="path50-3"
           sodipodi:nodetypes="ccccccccccccccccccccccccccccccccc" /><path
           style="fill:none;stroke:#000000;stroke-width:0.264583"
           d="m -303.97803,310.8314 v 3.00037 h 7.00008 v -3.00037 z"
           id="path66"
           sodipodi:nodetypes="ccccc" /><path
           style="fill:none;stroke:#000000;stroke-width:0.264583"
           d="m -303.97803,83.832395 v 3.00011 h 7.00008 v -3.00011 z"
           id="path69"
           sodipodi:nodetypes="ccccc" /><path
           style="fill:none;stroke:#000000;stroke-width:0.264583"
           d="m -303.97803,107.46895 v -3.00011 h 7.00008 v 3.00011 z"
           id="path76"
           sodipodi:nodetypes="ccccc" /><path
           style="fill:none;stroke:#000000;stroke-width:0.264583"
           d="m -296.97795,125.10528 h -7.00008 v 2.99984 h 7.00008 z"
           id="path79"
           sodipodi:nodetypes="ccccc" /><path
           style="fill:none;stroke:#000000;stroke-width:0.264583"
           d="m -303.97803,145.74145 v 3.00011 h 7.00008 v -3.00011 z"
           id="path81"
           sodipodi:nodetypes="ccccc" /><path
           style="fill:none;stroke:#000000;stroke-width:0.264583"
           d="m -296.97795,169.37801 h -7.00008 v -3.00011 h 7.00008 z"
           id="path87"
           sodipodi:nodetypes="ccccc" /><path
           style="fill:none;stroke:#000000;stroke-width:0.264583"
           d="m -303.97803,187.01434 v 2.99984 h 7.00008 v -2.99984 z"
           id="path92"
           sodipodi:nodetypes="ccccc" /><path
           style="fill:none;stroke:#000000;stroke-width:0.264583"
           d="m -303.97803,207.65051 v 3.00011 h 7.00008 v -3.00011 z"
           id="path93"
           sodipodi:nodetypes="ccccc" /><path
           style="fill:none;stroke:#000000;stroke-width:0.264583"
           d="m -303.97803,231.28707 v -3.00011 h 7.00008 v 3.00011 z"
           id="path100"
           sodipodi:nodetypes="ccccc" /><path
           style="fill:none;stroke:#000000;stroke-width:0.264583"
           d="m -303.97803,251.92324 v -2.99984 h 7.00008 v 2.99984 z"
           id="path104"
           sodipodi:nodetypes="ccccc" /><path
           style="fill:none;stroke:#000000;stroke-width:0.264583"
           d="m -303.97803,269.55984 v 2.99984 h 7.00008 v -2.99984 z"
           id="path106"
           sodipodi:nodetypes="ccccc" /><path
           style="fill:none;stroke:#000000;stroke-width:0.264583"
           d="m -296.97795,290.19601 h -7.00008 v 3.00091 h 7.00008 z"
           id="path111"
           sodipodi:nodetypes="ccccc" /></g><path
         style="fill:none;stroke:#000000;stroke-width:0.264583"
         d="m -143.51834,28.500122 v -4.300008 l -0.99999,-1.000125 h -23 l -1,1.000125 V 272.79944 l 1,1.00012 h 23 l 0.99999,-1.00012 v -4.29948 h 24.99992 v 4.29948 l 1.00013,1.00012 h 22.999961 l 1.000125,-1.00012 v -4.29948 h 24.99995 v 4.29948 l 0.99986,1.00012 h 22.999965 l 1.000125,-1.00012 V 24.200114 l -1.000125,-1.000125 h -22.999965 l -0.99986,1.000125 v 4.300008 h -24.99995 v -4.300008 l -1.000125,-1.000125 h -22.999961 l -1.00013,1.000125 v 4.300008 z"
         id="path46-0"
         sodipodi:nodetypes="ccccccccccccccccccccccccccccccccc" /></g></g></svg>
